<svg width="32" height="32" viewBox="0 0 32 32" fill="none" xmlns="http://www.w3.org/2000/svg">
<path d="M21.4964 4.01151H12.3589L0 16.3704L12.3222 28.6925H21.4964L9.19285 16.3894L21.4964 4.01151Z" fill="#669900"/>
<path d="M0.0478516 22.8391V28.7009H5.93267L0.0478516 22.8391Z" fill="#2B2F37"/>
<path d="M5.92139 4H0.0595703V9.88438L5.92139 4Z" fill="#2B2F37"/>
<path d="M19.6631 16.3562C19.6631 23.1687 25.1865 28.6925 31.9998 28.6925V22.2632C30.4332 22.2632 28.9308 21.6408 27.823 20.5331C26.7152 19.4253 26.0929 17.9229 26.0929 16.3562C26.0929 14.7896 26.7152 13.2872 27.823 12.1794C28.9308 11.0716 30.4332 10.4493 31.9998 10.4493V4.01993C25.1865 4.01993 19.6631 9.54289 19.6631 16.3562Z" fill="#FFE1A0"/>
</svg>
