<svg width="715" height="637" viewBox="0 0 715 637" fill="none" xmlns="http://www.w3.org/2000/svg">
<path d="M101.5 415.45L172.26 345.85C184.44 333.96 194.88 324.97 205.03 322.65V320.91C193.43 322.07 184.73 322.65 174 322.65C163.27 322.65 150.22 321.78 142.39 320.91V322.65C160.08 325.55 164.14 334.54 151.38 347.59L73.37 425.89C159.79 514.05 141.52 530 229.1 530V528.26C184.73 524.49 181.54 499.84 101.5 415.45ZM69.89 503.9C68.15 476.06 68.15 456.92 68.15 425.6C68.15 394.28 68.15 375.14 69.89 347.3C70.76 331.93 78.3 325.55 94.25 322.94V321.2C79.46 322.36 66.41 322.94 54.81 322.94C42.92 322.94 30.16 322.36 15.37 321.2V322.94C31.03 325.55 38.86 331.93 39.73 347.59C41.18 373.69 41.47 396.02 41.47 425.6C41.47 455.18 41.18 477.51 39.73 503.61C38.86 519.27 31.03 525.65 15.37 528.26V530C30.16 528.84 42.92 528.26 54.81 528.26C66.41 528.26 79.46 528.84 94.25 530V528.26C78.3 525.65 70.76 519.56 69.89 503.9ZM399.686 322.65C388.956 322.65 379.676 322.07 365.756 320.91V322.65C380.256 324.39 388.956 329.61 389.826 346.72C390.986 371.37 391.566 420.67 391.566 449.09C391.566 498.68 371.266 520.14 334.436 520.14C295.866 520.14 277.016 496.65 277.016 446.19C277.016 410.52 277.016 374.27 278.756 346.43C279.626 330.48 287.456 325.55 303.116 322.65V320.91C288.326 322.07 275.566 322.65 263.676 322.65C251.786 322.65 239.316 322.07 224.236 320.91V322.65C240.186 325.55 247.726 330.77 248.596 346.43C250.336 373.11 250.336 409.07 250.336 445.03C250.336 501.58 278.756 532.32 330.376 532.32C380.546 532.32 407.516 503.32 407.516 447.93C407.516 414.87 408.096 373.11 409.546 346.43C410.416 329.61 418.826 324.39 433.326 322.65V320.91C419.406 322.07 409.546 322.65 399.686 322.65ZM651.902 322.65C642.332 322.65 633.052 322.07 619.132 320.91V322.65C633.342 325.26 641.172 330.48 642.332 347.01C643.782 370.79 644.362 388.48 644.362 425.89V475.19C593.902 425.02 542.862 373.11 491.532 318.88H490.952C491.822 349.04 491.822 390.22 491.822 420.38C491.822 459.24 490.952 478.38 489.502 503.9C488.632 520.72 481.092 525.94 466.592 528.55V530.29C480.802 529.13 488.922 528.55 498.782 528.55C508.642 528.55 517.632 529.13 531.842 530.29V528.55C517.632 525.94 509.802 520.72 508.932 503.9C507.482 478.09 506.902 459.24 506.902 420.38V375.72C560.552 427.92 611.592 480.12 659.152 532.32H659.732C658.862 498.68 658.862 458.37 658.862 427.05C658.862 389.35 659.732 371.08 661.182 346.72C662.052 330.48 669.882 325.26 684.382 322.65V320.91C670.462 322.07 661.762 322.65 651.902 322.65Z" fill="black"/>
<path d="M621 29.4999C649.5 29.4999 661 67.4999 665 77.9999C665 35.4999 652.5 -0.00012207 606.5 -0.00012207C581 0 568.5 14.5 558 23.4999L292 256.5H657C677 256.5 700.5 273 700.5 296C692.5 282 688 270 649.5 270H239C214 221.5 191 230 184.5 179.5C169.5 203 162 216.5 162 232.5C163 258.5 188.5 275.5 204.5 290.5C215 300.344 220.5 307 220.5 314.5C220.5 327 193.074 358.382 175.5 386.5L57.5 280.5C56 277.5 56 277.5 57.5 273L64 251.5L34.5 283C34.5 283 26 291 26 297C26 304.5 34.5 312.5 34.5 312.5L160 434C216.5 359 228.735 341.5 234.5 327C238.029 318.124 239 312.5 246 312.5H662C686.5 312.5 689.5 320 698.5 338.5C708.406 321.7 715 305 715 290C715 280 710 249.5 689.5 228C683.5 222.5 669.5 215 643.5 215H385L542 77.9999C574.698 48.8578 597 29.4999 621 29.4999Z" fill="#AAA078"/>
<circle cx="86" cy="133" r="51" fill="#AAA078"/>
</svg>
