<svg width="120" height="120" viewBox="0 0 120 120" fill="none" xmlns="http://www.w3.org/2000/svg">
<path d="M80.6118 13.7576H46.3459L0 60.2808L46.2082 106.666H80.6118L34.4732 60.3524L80.6118 13.7576Z" fill="#414246"/>
<path d="M0.179688 84.6315V106.698H22.2478L0.179688 84.6315Z" fill="#414246"/>
<path d="M22.2035 13.7143H0.22168V35.8652L22.2035 13.7143Z" fill="#414246"/>
<path d="M73.7373 60.2275C73.7373 85.8721 94.4501 106.666 120 106.666V82.4634C114.125 82.4634 108.491 80.1207 104.337 75.9507C100.183 71.7806 97.8492 66.1249 97.8492 60.2275C97.8492 54.3302 100.183 48.6745 104.337 44.5044C108.491 40.3344 114.125 37.9917 120 37.9917V13.7892C94.4501 13.7892 73.7373 34.5796 73.7373 60.2275Z" fill="#414246"/>
</svg>
