<svg width="16" height="16" viewBox="0 0 16 16" fill="none" xmlns="http://www.w3.org/2000/svg">
<path d="M10.7482 1.83434H6.17945L0 8.03744L6.16109 14.2221H10.7482L4.59643 8.04698L10.7482 1.83434Z" fill="#414246"/>
<path d="M0.0244141 11.2842V14.2263H2.96683L0.0244141 11.2842Z" fill="#414246"/>
<path d="M2.96021 1.82857H0.0292969V4.78202L2.96021 1.82857Z" fill="#414246"/>
<path d="M9.83203 8.03034C9.83203 11.4496 12.5937 14.2221 16.0004 14.2221V10.9951C15.2171 10.9951 14.4659 10.6828 13.912 10.1268C13.3581 9.57075 13.0469 8.81665 13.0469 8.03034C13.0469 7.24403 13.3581 6.48993 13.912 5.93392C14.4659 5.37792 15.2171 5.06556 16.0004 5.06556V1.83856C12.5937 1.83856 9.83203 4.61062 9.83203 8.03034Z" fill="#414246"/>
</svg>
