<svg width="48" height="48" viewBox="0 0 48 48" fill="none" xmlns="http://www.w3.org/2000/svg">
<path d="M32.2447 5.50304H18.5383L0 24.1123L18.4833 42.6664H32.2447L13.7893 24.141L32.2447 5.50304Z" fill="#414246"/>
<path d="M0.0722656 33.8526V42.679H8.89951L0.0722656 33.8526Z" fill="#414246"/>
<path d="M8.88161 5.48572H0.0888672V14.3461L8.88161 5.48572Z" fill="#414246"/>
<path d="M29.4951 24.091C29.4951 34.3488 37.7802 42.6663 48.0003 42.6663V32.9854C45.6504 32.9854 43.3967 32.0483 41.735 30.3803C40.0734 28.7123 39.1399 26.4499 39.1399 24.091C39.1399 21.7321 40.0734 19.4698 41.735 17.8018C43.3967 16.1338 45.6504 15.1967 48.0003 15.1967V5.51569C37.7802 5.51569 29.4951 13.8319 29.4951 24.091Z" fill="#414246"/>
</svg>
