<svg width="48" height="48" viewBox="0 0 48 48" fill="none" xmlns="http://www.w3.org/2000/svg">
<path d="M32.2446 5.01727H18.5383L0 23.5556L18.4832 42.0388H32.2446L13.7893 23.5841L32.2446 5.01727Z" fill="#669900"/>
<path d="M0.0712891 33.2587V42.0514H8.89852L0.0712891 33.2587Z" fill="#2B2F37"/>
<path d="M8.88159 5H0.0888672V13.8266L8.88159 5Z" fill="#2B2F37"/>
<path d="M29.4951 23.5343C29.4951 33.753 37.7802 42.0388 48.0002 42.0388V32.3947C45.6503 32.3947 43.3966 31.4612 41.735 29.7996C40.0733 28.1379 39.1398 25.8843 39.1398 23.5343C39.1398 21.1844 40.0733 18.9307 41.735 17.2691C43.3966 15.6074 45.6503 14.6739 48.0002 14.6739V5.02988C37.7802 5.02988 29.4951 13.3143 29.4951 23.5343Z" fill="#FFE1A0"/>
</svg>
