<svg width="120" height="120" viewBox="0 0 120 120" fill="none" xmlns="http://www.w3.org/2000/svg">
<g clip-path="url(#clip0_501_65)">
<path d="M80.6116 14.0432H46.3458L0 60.3889L46.2081 106.597H80.6116L34.4732 60.4602L80.6116 14.0432Z" fill="#669900"/>
<path d="M0.178711 84.6467V106.628H22.2468L0.178711 84.6467Z" fill="#2B2F37"/>
<path d="M22.2045 14H0.222656V36.0664L22.2045 14Z" fill="#2B2F37"/>
<path d="M73.7373 60.3358C73.7373 85.8826 94.4501 106.597 120 106.597V82.4868C114.125 82.4868 108.491 80.1531 104.337 75.9989C100.183 71.8448 97.8491 66.2106 97.8491 60.3358C97.8491 54.461 100.183 48.8268 104.337 44.6727C108.491 40.5186 114.125 38.1848 120 38.1848V14.0746C94.4501 14.0746 73.7373 34.7858 73.7373 60.3358Z" fill="#FFE1A0"/>
</g>
<defs>
<clipPath id="clip0_501_65">
<rect width="120" height="120" fill="white"/>
</clipPath>
</defs>
</svg>
