<?xml version="1.0" encoding="UTF-8"?>
<svg xmlns="http://www.w3.org/2000/svg" xmlns:xlink="http://www.w3.org/1999/xlink" width="497pt" height="321pt" viewBox="0 0 497 321" version="1.1">
<g id="surface1">
<path style=" stroke:none;fill-rule:evenodd;fill:rgb(13.699341%,12.199402%,12.5%);fill-opacity:1;" d="M 306.351563 229.230469 L 344.722656 320.925781 L 386.652344 320.925781 L 347.546875 229.230469 L 306.351563 229.230469 "/>
<path style=" stroke:none;fill-rule:evenodd;fill:rgb(13.699341%,12.199402%,12.5%);fill-opacity:1;" d="M 147.789063 320.925781 L 296.078125 210.746094 L 496.453125 210.746094 L 496.453125 174.625 L 282.648438 174.625 L 180.761719 247.058594 L 249.433594 93.21875 L 275.761719 156.136719 L 316.375 156.136719 L 249.796875 0.0195313 L 102.773438 320.925781 L 147.789063 320.925781 "/>
<path style=" stroke:none;fill-rule:evenodd;fill:rgb(13.699341%,12.199402%,12.5%);fill-opacity:1;" d="M 152.789063 174.625 L 0.820313 174.625 L 0.820313 210.746094 L 136.238281 210.746094 L 152.789063 174.625 "/>
<path style=" stroke:none;fill-rule:evenodd;fill:rgb(13.699341%,12.199402%,12.5%);fill-opacity:1;" d="M 127.769531 229.230469 L 0.820313 229.230469 L 0.820313 265.351563 L 111.222656 265.351563 L 127.769531 229.230469 "/>
<path style=" stroke:none;fill-rule:evenodd;fill:rgb(13.699341%,12.199402%,12.5%);fill-opacity:1;" d="M 496.453125 229.230469 L 365.109375 229.230469 L 380.511719 265.351563 L 496.453125 265.351563 L 496.453125 229.230469 "/>
<path style=" stroke:none;fill-rule:evenodd;fill:rgb(13.699341%,12.199402%,12.5%);fill-opacity:1;" d="M 177.804688 120.019531 L 0.820313 120.019531 L 0.820313 156.136719 L 161.257813 156.136719 L 177.804688 120.019531 "/>
<path style=" stroke:none;fill-rule:evenodd;fill:rgb(13.699341%,12.199402%,12.5%);fill-opacity:1;" d="M 496.453125 120.019531 L 318.53125 120.019531 L 333.9375 156.136719 L 496.453125 156.136719 L 496.453125 120.019531 "/>
</g>
</svg>
