<svg width="220" height="220" viewBox="0 0 220 220" fill="none" xmlns="http://www.w3.org/2000/svg">
<path d="M147.788 25.0794H84.9674L0 110.372L84.715 195.411H147.788L63.2009 110.503L147.788 25.0794Z" fill="#414246"/>
<path d="M0.329102 155.015V195.469H40.7873L0.329102 155.015Z" fill="#414246"/>
<path d="M40.7073 25H0.407227V65.61L40.7073 25Z" fill="#414246"/>
<path d="M135.185 110.274C135.185 157.289 173.158 195.411 220 195.411V151.04C209.229 151.04 198.9 146.745 191.284 139.1C183.668 131.455 179.39 121.086 179.39 110.274C179.39 99.4626 183.668 89.0937 191.284 81.4486C198.9 73.8035 209.229 69.5086 220 69.5086V25.1374C173.158 25.1374 135.185 63.2532 135.185 110.274Z" fill="#414246"/>
</svg>
