<svg width="32" height="32" viewBox="0 0 32 32" fill="none" xmlns="http://www.w3.org/2000/svg">
<path d="M21.4965 3.66869H12.3589L0 16.0749L12.3222 28.4442H21.4965L9.19287 16.094L21.4965 3.66869Z" fill="#414246"/>
<path d="M0.0478516 22.5684V28.4527H5.93268L0.0478516 22.5684Z" fill="#414246"/>
<path d="M5.9214 3.65714H0.0595703V9.56405L5.9214 3.65714Z" fill="#414246"/>
<path d="M19.6631 16.0607C19.6631 22.8992 25.1865 28.4442 31.9999 28.4442V21.9902C30.4332 21.9902 28.9308 21.3655 27.823 20.2535C26.7153 19.1415 26.0929 17.6333 26.0929 16.0607C26.0929 14.4881 26.7153 12.9799 27.823 11.8678C28.9308 10.7558 30.4332 10.1311 31.9999 10.1311V3.67712C25.1865 3.67712 19.6631 9.22124 19.6631 16.0607Z" fill="#414246"/>
</svg>
