<svg width="70" height="70" viewBox="0 0 70 70" fill="none" xmlns="http://www.w3.org/2000/svg">
<path d="M47.0235 8.02525H27.0351L0 35.1638L26.9548 62.2218H47.0235L20.1094 35.2056L47.0235 8.02525Z" fill="#414246"/>
<path d="M0.104492 49.3684V62.2402H12.9776L0.104492 49.3684Z" fill="#414246"/>
<path d="M12.9526 8H0.129883V20.9214L12.9526 8Z" fill="#414246"/>
<path d="M43.0137 35.1327C43.0137 50.0921 55.0961 62.2218 70.0004 62.2218V48.1036C66.5734 48.1036 63.2868 46.7371 60.8635 44.3046C58.4403 41.872 57.0789 38.5728 57.0789 35.1327C57.0789 31.6926 58.4403 28.3934 60.8635 25.9609C63.2868 23.5284 66.5734 22.1618 70.0004 22.1618V8.04372C55.0961 8.04372 43.0137 20.1715 43.0137 35.1327Z" fill="#414246"/>
</svg>
