<svg width="220" height="220" viewBox="0 0 220 220" fill="none" xmlns="http://www.w3.org/2000/svg">
<path d="M147.788 25.0791H84.9672L0 110.046L84.7148 194.761H147.788L63.2008 110.177L147.788 25.0791Z" fill="#669900"/>
<path d="M0.328125 154.519V194.819H40.7863L0.328125 154.519Z" fill="#2B2F37"/>
<path d="M40.7072 25H0.407227V65.4551L40.7072 25Z" fill="#2B2F37"/>
<path d="M135.185 109.949C135.185 156.785 173.158 194.761 220 194.761V150.559C209.229 150.559 198.9 146.281 191.284 138.665C183.668 131.049 179.39 120.719 179.39 109.949C179.39 99.1785 183.668 88.8491 191.284 81.2332C198.9 73.6173 209.229 69.3388 220 69.3388V25.1368C173.158 25.1368 135.185 63.1072 135.185 109.949Z" fill="#FFE1A0"/>
</svg>
