<svg width="70" height="70" viewBox="0 0 70 70" fill="none" xmlns="http://www.w3.org/2000/svg">
<path d="M47.0234 8.02518H27.035L0 35.0602L26.9547 62.0149H47.0234L20.1093 35.1018L47.0234 8.02518Z" fill="#669900"/>
<path d="M0.104492 49.2106V62.0333H12.9775L0.104492 49.2106Z" fill="#2B2F37"/>
<path d="M12.9526 8H0.129883V20.8721L12.9526 8Z" fill="#2B2F37"/>
<path d="M43.0137 35.0292C43.0137 49.9315 55.0961 62.0149 70.0003 62.0149V47.9506C66.5733 47.9506 63.2867 46.5893 60.8635 44.1661C58.4403 41.7428 57.0789 38.4562 57.0789 35.0292C57.0789 31.6023 58.4403 28.3156 60.8635 25.8924C63.2867 23.4692 66.5733 22.1078 70.0003 22.1078V8.04355C55.0961 8.04355 43.0137 20.125 43.0137 35.0292Z" fill="#FFE1A0"/>
</svg>
