<svg width="16" height="16" viewBox="0 0 16 16" fill="none" xmlns="http://www.w3.org/2000/svg">
<path d="M10.7482 2.00574H6.17944L0 8.18517L6.16108 14.3462H10.7482L4.59642 8.19468L10.7482 2.00574Z" fill="#669900"/>
<path d="M0.0234375 11.4196V14.3505H2.96585L0.0234375 11.4196Z" fill="#2B2F37"/>
<path d="M2.96021 2H0.0292969V4.94219L2.96021 2Z" fill="#2B2F37"/>
<path d="M9.83203 8.1781C9.83203 11.5843 12.5937 14.3463 16.0004 14.3463V11.1316C15.2171 11.1316 14.4659 10.8204 13.912 10.2665C13.3581 9.71264 13.0469 8.96141 13.0469 8.1781C13.0469 7.3948 13.3581 6.64357 13.912 6.08969C14.4659 5.5358 15.2171 5.22463 16.0004 5.22463V2.00995C12.5937 2.00995 9.83203 4.77143 9.83203 8.1781Z" fill="#FFE1A0"/>
</svg>
